<?xml version="1.0" standalone="no"?>
<!DOCTYPE svg PUBLIC "-//W3C//DTD SVG 20010904//EN"
 "http://www.w3.org/TR/2001/REC-SVG-20010904/DTD/svg10.dtd">
<svg version="1.0" xmlns="http://www.w3.org/2000/svg"
 width="506.000000pt" height="413.000000pt" viewBox="0 0 506.000000 413.000000"
 preserveAspectRatio="xMidYMid meet">

<g transform="translate(0.000000,413.000000) scale(0.100000,-0.100000)"
fill="#000000" stroke="none">
<path d="M1865 2839 c-33 -4 -115 -18 -182 -30 -99 -18 -128 -20 -148 -11 -38
17 -70 15 -90 -8 -10 -11 -26 -22 -36 -25 -10 -3 -20 -18 -24 -34 -3 -15 -18
-35 -35 -45 -76 -44 -204 -182 -291 -314 -97 -146 -100 -154 -162 -422 -40
-170 -41 -180 -40 -350 0 -182 13 -280 55 -425 24 -83 39 -103 87 -111 20 -3
63 -14 96 -24 34 -10 108 -21 165 -25 124 -7 203 -21 245 -42 49 -26 215 -152
285 -218 36 -34 124 -108 195 -164 72 -56 156 -123 188 -149 32 -26 85 -61
118 -79 33 -17 65 -36 72 -41 24 -19 159 -22 262 -5 169 26 279 96 425 268
255 301 389 430 515 494 80 40 242 75 430 91 139 12 168 21 196 60 16 22 17
30 7 64 -7 21 -25 48 -42 61 -17 13 -116 60 -221 105 -104 44 -201 88 -213 96
-13 9 -48 24 -78 34 -66 23 -296 149 -342 187 -29 25 -35 39 -52 128 -23 115
-88 254 -196 415 -79 118 -84 124 -164 191 -36 29 -83 70 -105 89 -22 19 -105
67 -185 106 -180 89 -295 121 -465 129 -66 3 -140 7 -165 9 -25 2 -72 0 -105
-5z m245 -44 c96 -7 189 -18 205 -24 17 -5 64 -19 105 -32 41 -12 126 -48 188
-81 90 -46 138 -80 232 -163 66 -59 138 -133 163 -168 104 -150 227 -422 227
-504 0 -49 -51 -108 -156 -179 -46 -31 -89 -63 -95 -71 -6 -7 -17 -13 -24 -13
-7 0 -28 -11 -48 -24 l-35 -24 -5 27 c-7 35 -261 551 -300 611 -44 66 -237
254 -288 280 -24 13 -75 44 -114 70 -61 40 -138 76 -405 185 -30 12 -79 28
-107 35 -44 12 -53 18 -53 36 0 25 -2 24 155 43 106 13 164 12 355 -4z m-660
-148 c-105 -106 -156 -315 -130 -533 35 -290 137 -600 327 -984 23 -46 40 -87
38 -91 -7 -11 -290 -10 -381 1 -108 13 -246 46 -294 70 -54 27 -78 82 -97 212
-19 138 -21 380 -5 468 19 99 72 318 93 385 33 104 165 306 276 419 l98 101
58 -3 58 -4 -41 -41z m1853 -941 c18 -13 74 -47 124 -76 51 -29 91 -56 88 -60
-8 -13 10 -20 57 -26 62 -8 367 -152 352 -167 -9 -8 36 -29 51 -23 7 2 16 -2
19 -10 3 -8 10 -14 17 -14 6 0 9 6 6 14 -3 8 19 2 59 -17 49 -24 64 -36 64
-52 0 -33 -39 -45 -215 -66 -88 -11 -171 -22 -185 -24 -131 -22 -232 -66 -347
-150 -78 -57 -249 -229 -295 -295 -17 -25 -65 -79 -107 -120 -43 -41 -85 -87
-94 -102 -26 -41 -126 -105 -212 -133 -94 -32 -207 -36 -284 -10 -55 18 -148
77 -170 108 -7 10 -38 34 -67 53 -30 19 -80 56 -111 81 -32 26 -94 76 -138
111 -44 36 -95 80 -113 98 -19 18 -74 63 -123 100 -49 37 -89 67 -89 68 0 1
37 2 83 3 165 4 286 23 392 63 33 13 94 34 135 47 41 14 89 31 105 38 17 7 59
25 95 40 99 41 195 93 299 162 51 35 98 63 103 63 8 0 147 85 219 134 92 62
171 120 204 150 22 19 41 35 43 36 2 0 18 -11 35 -24z"/>
<path d="M3273 1693 c9 -9 20 -13 24 -9 4 4 1 11 -7 16 -25 16 -35 11 -17 -7z"/>
<path d="M3237 1683 c-10 -9 -9 -23 2 -23 5 0 11 7 15 15 5 15 -5 20 -17 8z"/>
<path d="M3320 1660 c0 -10 32 -30 49 -30 20 0 11 17 -14 28 -31 14 -35 15
-35 2z"/>
<path d="M3300 1642 c0 -10 21 -32 32 -32 16 0 8 19 -12 30 -11 6 -20 7 -20 2z"/>
<path d="M3255 1629 c-4 -6 -5 -13 -2 -16 7 -7 27 6 27 18 0 12 -17 12 -25 -2z"/>
<path d="M3160 1615 c-7 -9 -10 -18 -7 -22 8 -7 37 15 37 28 0 14 -16 11 -30
-6z"/>
<path d="M3416 1611 c-6 -10 52 -37 60 -28 3 3 -8 13 -25 21 -16 9 -32 12 -35
7z"/>
<path d="M3290 1602 c0 -10 21 -32 32 -32 16 0 8 19 -12 30 -11 6 -20 7 -20 2z"/>
<path d="M3380 1590 c0 -14 38 -32 45 -21 3 6 -3 15 -14 20 -24 14 -31 14 -31
1z"/>
<path d="M3185 1550 c-17 -18 -17 -20 -1 -20 9 0 19 7 23 15 9 25 -2 27 -22 5z"/>
<path d="M3070 1545 c-21 -25 -1 -31 23 -7 17 18 18 22 5 22 -8 0 -21 -7 -28
-15z"/>
<path d="M3364 1545 c24 -18 39 -20 34 -2 -3 6 -15 13 -29 15 -23 2 -23 2 -5
-13z"/>
<path d="M3470 1540 c0 -11 33 -30 52 -30 7 1 3 9 -11 20 -25 22 -41 26 -41
10z"/>
<path d="M3620 1512 c0 -11 51 -35 58 -27 3 3 1 9 -4 14 -14 14 -54 23 -54 13z"/>
<path d="M3432 1498 c3 -7 15 -15 28 -16 21 -3 22 -2 11 12 -16 19 -44 21 -39
4z"/>
<path d="M2990 1485 c-7 -9 -10 -18 -7 -22 8 -7 37 15 37 28 0 14 -16 11 -30
-6z"/>
<path d="M3091 1487 c-6 -8 -8 -17 -4 -20 7 -8 33 11 33 24 0 13 -16 11 -29
-4z"/>
<path d="M3585 1470 c3 -5 13 -10 21 -10 8 0 12 5 9 10 -3 6 -13 10 -21 10 -8
0 -12 -4 -9 -10z"/>
<path d="M3510 1460 c0 -5 9 -14 20 -20 22 -12 27 -1 8 18 -14 14 -28 16 -28
2z"/>
<path d="M3720 1461 c0 -10 50 -25 58 -17 2 3 -7 10 -22 16 -33 12 -36 12 -36
1z"/>
<path d="M2911 1437 c-6 -8 -8 -17 -5 -20 7 -7 44 14 44 25 0 13 -27 9 -39 -5z"/>
<path d="M3005 1410 c-25 -27 -10 -39 16 -13 12 11 17 23 11 27 -5 3 -17 -3
-27 -14z"/>
<path d="M3580 1423 c0 -5 4 -15 10 -23 11 -18 25 -7 17 15 -6 15 -27 21 -27
8z"/>
<path d="M3814 1419 c-3 -5 7 -14 22 -19 28 -11 40 -8 30 8 -8 14 -45 22 -52
11z"/>
<path d="M2857 1406 c-9 -7 -17 -16 -17 -20 0 -11 27 -6 39 8 16 19 0 27 -22
12z"/>
<path d="M3730 1417 c0 -9 71 -47 86 -47 8 0 14 5 14 10 0 9 -14 12 -36 9 -4
0 -10 4 -13 9 -6 10 -51 26 -51 19z"/>
<path d="M2796 1367 c-10 -8 -17 -19 -15 -26 3 -9 9 -8 23 2 10 8 17 19 15 26
-3 9 -9 8 -23 -2z"/>
<path d="M3505 1371 c-10 -17 11 -21 31 -6 18 14 18 14 -3 15 -12 0 -24 -4
-28 -9z"/>
<path d="M3715 1359 c-4 -6 -5 -13 -2 -16 7 -7 27 6 27 18 0 12 -17 12 -25 -2z"/>
<path d="M2885 1339 c-4 -6 -4 -13 -1 -16 8 -8 36 5 36 17 0 13 -27 13 -35 -1z"/>
<path d="M3414 1336 c-10 -8 -16 -17 -12 -21 8 -8 48 13 48 25 0 14 -13 12
-36 -4z"/>
<path d="M3611 1336 c-13 -7 -20 -16 -15 -19 10 -6 51 20 43 27 -2 2 -15 -1
-28 -8z"/>
<path d="M3896 1312 c-13 -12 -5 -22 19 -22 14 0 25 4 25 9 0 10 -36 21 -44
13z"/>
<path d="M3985 1309 c-12 -19 5 -23 22 -6 16 16 16 17 1 17 -9 0 -20 -5 -23
-11z"/>
<path d="M2700 1295 c-7 -9 -10 -18 -7 -22 8 -7 37 15 37 28 0 14 -16 11 -30
-6z"/>
<path d="M3331 1300 c-7 -4 -12 -13 -10 -19 3 -8 10 -8 23 2 21 15 9 31 -13
17z"/>
<path d="M3504 1296 c-10 -8 -16 -17 -13 -21 9 -8 59 16 53 26 -7 13 -17 11
-40 -5z"/>
<path d="M3817 1303 c-15 -14 -6 -24 16 -18 35 11 44 25 16 25 -14 0 -29 -3
-32 -7z"/>
<path d="M3748 1293 c-24 -6 -23 -23 1 -23 28 0 52 11 45 21 -5 9 -17 10 -46
2z"/>
<path d="M2782 1278 c-19 -19 -14 -30 8 -18 11 6 20 15 20 20 0 14 -14 12 -28
-2z"/>
<path d="M3648 1263 c-10 -2 -18 -9 -18 -14 0 -15 53 -6 58 9 4 12 -8 14 -40
5z"/>
<path d="M2610 1245 c-7 -9 -11 -18 -8 -20 9 -10 38 7 38 21 0 18 -14 18 -30
-1z"/>
<path d="M3226 1235 c-23 -17 -13 -34 11 -19 19 12 29 34 16 34 -4 0 -17 -7
-27 -15z"/>
<path d="M3567 1234 c-15 -8 -25 -19 -22 -24 8 -13 55 10 55 27 0 16 2 16 -33
-3z"/>
<path d="M2687 1229 c-17 -10 -23 -29 -9 -29 5 0 16 6 27 13 22 17 7 29 -18
16z"/>
<path d="M3381 1231 c-10 -6 -10 -10 -1 -16 7 -4 19 0 28 9 14 13 14 16 2 16
-8 0 -21 -4 -29 -9z"/>
<path d="M2514 1196 c-10 -8 -16 -17 -12 -21 8 -8 48 13 48 25 0 14 -13 12
-36 -4z"/>
<path d="M3297 1189 c-17 -10 -23 -29 -9 -29 5 0 16 6 27 13 22 17 7 29 -18
16z"/>
<path d="M3464 1185 c-19 -14 -19 -14 2 -15 12 0 27 7 34 15 17 20 -9 21 -36
0z"/>
<path d="M2593 1173 c-18 -6 -16 -23 1 -23 17 0 30 16 19 23 -5 2 -14 2 -20 0z"/>
<path d="M3131 1156 c-19 -23 4 -28 24 -6 15 17 16 20 3 20 -9 0 -21 -6 -27
-14z"/>
<path d="M2420 1145 c0 -13 4 -14 20 -5 11 6 20 13 20 15 0 3 -9 5 -20 5 -11
0 -20 -7 -20 -15z"/>
<path d="M3226 1134 c-23 -22 -20 -37 4 -22 11 7 20 18 20 25 0 17 -5 16 -24
-3z"/>
<path d="M3370 1135 c-10 -12 -10 -15 3 -15 8 0 20 7 27 15 10 12 10 15 -3 15
-8 0 -20 -7 -27 -15z"/>
<path d="M2490 1120 c-8 -5 -11 -12 -8 -16 10 -9 38 3 38 16 0 12 -10 13 -30
0z"/>
<path d="M2318 1113 c-19 -5 -25 -23 -9 -23 17 0 41 12 41 21 0 9 -4 10 -32 2z"/>
<path d="M3072 1088 c-6 -6 -12 -19 -12 -27 0 -13 2 -13 16 1 9 9 15 21 13 27
-3 9 -8 8 -17 -1z"/>
<path d="M3297 1093 c-4 -3 -7 -13 -7 -21 0 -12 3 -12 15 -2 8 7 15 16 15 21
0 11 -14 12 -23 2z"/>
<path d="M2390 1080 c-8 -5 -11 -12 -8 -16 10 -9 38 3 38 16 0 12 -10 13 -30
0z"/>
<path d="M2197 1069 c-26 -15 -10 -30 18 -17 26 12 34 28 13 28 -7 0 -21 -5
-31 -11z"/>
<path d="M3132 1037 c-13 -14 -19 -28 -14 -31 12 -7 45 29 40 44 -2 6 -13 1
-26 -13z"/>
<path d="M3236 1044 c-13 -13 -15 -19 -6 -22 15 -5 33 13 28 28 -3 9 -9 7 -22
-6z"/>
<path d="M2108 1043 c-19 -5 -25 -23 -9 -23 17 0 41 12 41 21 0 9 -4 10 -32 2z"/>
<path d="M2255 1029 c-4 -6 -5 -12 -4 -14 7 -7 59 8 59 16 0 13 -47 11 -55 -2z"/>
<path d="M2014 1005 c-10 -8 -14 -14 -9 -15 15 0 40 18 34 24 -3 3 -14 -1 -25
-9z"/>
<path d="M2165 1000 c3 -5 12 -10 20 -10 8 0 17 5 20 10 4 6 -5 10 -20 10 -15
0 -24 -4 -20 -10z"/>
<path d="M2986 991 c-11 -12 -16 -24 -12 -28 9 -9 39 22 34 37 -2 7 -10 4 -22
-9z"/>
<path d="M3167 972 c-28 -30 -20 -49 8 -22 25 24 32 40 17 40 -5 0 -16 -8 -25
-18z"/>
<path d="M1900 970 c0 -13 11 -13 30 0 12 8 11 10 -7 10 -13 0 -23 -4 -23 -10z"/>
<path d="M2077 974 c-4 -4 -4 -10 -1 -15 6 -10 34 0 34 12 0 10 -24 12 -33 3z"/>
<path d="M1815 960 c-3 -5 -13 -6 -23 -3 -15 6 -15 5 -3 -10 14 -18 36 -24 26
-7 -3 6 3 10 14 10 12 0 21 5 21 10 0 13 -27 13 -35 0z"/>
<path d="M3035 930 c-17 -18 -17 -20 -1 -20 9 0 19 7 23 15 9 25 -2 27 -22 5z"/>
<path d="M1995 930 c-3 -5 1 -10 9 -10 8 0 18 5 21 10 3 6 -1 10 -9 10 -8 0
-18 -4 -21 -10z"/>
<path d="M2110 905 c7 -8 19 -15 27 -15 13 0 13 3 3 15 -7 8 -19 15 -27 15
-13 0 -13 -3 -3 -15z"/>
<path d="M2903 905 c-8 -22 6 -33 17 -15 13 20 12 30 0 30 -6 0 -13 -7 -17
-15z"/>
<path d="M1830 902 c0 -5 7 -13 16 -16 10 -4 14 -1 12 6 -5 15 -28 23 -28 10z"/>
<path d="M1962 898 c3 -7 13 -15 22 -16 12 -3 17 1 14 10 -3 7 -13 15 -22 16
-12 3 -17 -1 -14 -10z"/>
<path d="M3096 891 c-11 -12 -16 -24 -12 -28 9 -9 39 22 34 37 -2 7 -10 4 -22
-9z"/>
<path d="M2185 850 c19 -21 45 -27 45 -10 0 11 -33 30 -51 30 -8 0 -5 -7 6
-20z"/>
<path d="M1892 849 c2 -7 10 -15 17 -17 8 -3 12 1 9 9 -2 7 -10 15 -17 17 -8
3 -12 -1 -9 -9z"/>
<path d="M2040 845 c7 -8 17 -15 22 -15 6 0 5 7 -2 15 -7 8 -17 15 -22 15 -6
0 -5 -7 2 -15z"/>
<path d="M2962 848 c-7 -7 -12 -19 -12 -27 0 -11 4 -10 20 4 21 19 26 35 12
35 -4 0 -13 -5 -20 -12z"/>
<path d="M2829 824 c-12 -14 -11 -16 5 -13 11 2 21 10 24 17 5 17 -13 15 -29
-4z"/>
<path d="M3035 819 c-4 -6 -5 -13 -2 -16 7 -7 27 6 27 18 0 12 -17 12 -25 -2z"/>
<path d="M1960 798 c0 -18 18 -34 28 -24 3 4 -2 14 -11 23 -16 16 -17 16 -17
1z"/>
<path d="M2110 802 c0 -13 23 -32 38 -32 7 0 10 4 7 10 -9 14 -45 32 -45 22z"/>
<path d="M2260 802 c0 -13 23 -32 39 -32 11 0 10 4 -4 20 -19 21 -35 26 -35
12z"/>
<path d="M2750 765 c-7 -9 -10 -18 -7 -22 8 -7 37 15 37 28 0 14 -16 11 -30
-6z"/>
<path d="M2877 752 c-10 -11 -14 -23 -9 -26 12 -7 35 19 30 34 -2 7 -11 3 -21
-8z"/>
<path d="M2330 752 c0 -10 41 -35 47 -28 9 8 -17 36 -33 36 -8 0 -14 -3 -14
-8z"/>
<path d="M2970 745 c-7 -9 -10 -18 -7 -22 8 -7 37 15 37 28 0 14 -16 11 -30
-6z"/>
<path d="M2190 738 c0 -16 37 -41 44 -29 3 5 0 13 -7 18 -26 21 -37 24 -37 11z"/>
<path d="M2044 725 c11 -8 22 -12 25 -9 6 6 -19 24 -34 24 -5 -1 -1 -7 9 -15z"/>
<path d="M2656 695 c-23 -17 -13 -34 11 -19 19 12 29 34 16 34 -4 0 -17 -7
-27 -15z"/>
<path d="M2440 690 c0 -9 40 -30 56 -30 14 0 0 19 -21 28 -32 15 -35 15 -35 2z"/>
<path d="M2911 686 c-8 -9 -11 -19 -7 -23 9 -9 29 13 24 27 -2 8 -8 7 -17 -4z"/>
<path d="M2795 670 c-14 -16 -15 -20 -4 -20 16 0 39 19 39 32 0 14 -16 9 -35
-12z"/>
<path d="M2280 660 c0 -12 40 -33 48 -25 4 4 -2 13 -12 21 -23 16 -36 18 -36
4z"/>
<path d="M2130 645 c7 -8 20 -15 29 -15 13 1 13 3 -3 15 -26 19 -42 19 -26 0z"/>
<path d="M2555 650 c3 -5 17 -10 31 -10 13 0 24 5 24 10 0 6 -14 10 -31 10
-17 0 -28 -4 -24 -10z"/>
<path d="M2835 609 c-4 -6 -5 -13 -2 -16 7 -7 27 6 27 18 0 12 -17 12 -25 -2z"/>
<path d="M2360 601 c0 -12 39 -25 48 -16 7 7 -17 25 -35 25 -7 0 -13 -4 -13
-9z"/>
<path d="M2688 596 c-10 -7 -18 -16 -18 -20 0 -12 18 -6 41 14 28 22 6 28 -23
6z"/>
<path d="M2223 573 c9 -9 19 -14 23 -11 10 10 -6 28 -24 28 -15 0 -15 -1 1
-17z"/>
<path d="M2776 561 c-11 -12 -16 -24 -12 -28 9 -9 39 22 34 37 -2 7 -10 4 -22
-9z"/>
<path d="M2440 561 c0 -10 25 -21 48 -21 15 1 14 3 -2 15 -22 17 -46 20 -46 6z"/>
<path d="M2578 553 c-10 -2 -18 -9 -18 -14 0 -15 43 -7 48 9 4 12 0 13 -30 5z"/>
<path d="M2300 522 c0 -4 9 -13 20 -20 27 -17 47 -5 23 14 -20 15 -43 18 -43
6z"/>
<path d="M2695 499 c-4 -6 -5 -12 -2 -15 7 -7 37 7 37 17 0 13 -27 11 -35 -2z"/>
<path d="M2390 471 c0 -11 39 -25 47 -18 3 3 2 10 -2 16 -8 13 -45 15 -45 2z"/>
<path d="M2601 461 c-8 -5 -9 -11 -3 -15 13 -8 42 3 42 15 0 11 -21 11 -39 0z"/>
<path d="M2466 451 c-6 -9 54 -25 62 -16 7 7 1 11 -30 19 -15 3 -29 2 -32 -3z"/>
</g>
</svg>
